# xmcd
#
# Track frame offsets:
#	150
#	20065
#	38329
#	54365
#	69221
#	87113
#	100625
#	114400
#	131463
#	154296
#	174488
#	188761
#	206624
#	226111
#	238824
#
# Disc length: 3451 seconds
#
# Revision: 1
# Processed by: cddbd v1.4PL0 Copyright (c) Steve Scherf et al.
# Submitted via: audiograbber 1.81.03
#
DISCID=b30d790f
DTITLE=Lucinda Williams - Six Blocks Away
DYEAR=1900
DGENRE=
TTITLE0=Hot Blood
TTITLE1=Pineola
TTITLE2=What You Don't Know
TTITLE3=Deadend Street
TTITLE4=Pancakes
TTITLE5=Six Blocks Away
TTITLE6=Wild and Blue
TTITLE7=Memphis Pearl
TTITLE8=Happy Woman Blues
TTITLE9=Little Angel/Little Brother
TTITLE10=Lines Around Your Eyes
TTITLE11=Something About What Happens When We Talk
TTITLE12=Sweet Old World
TTITLE13=Prove My Love
TTITLE14=Well-Well-Well
EXTD=Pinup Records
EXTT0=
EXTT1=
EXTT2=
EXTT3=
EXTT4=
EXTT5=
EXTT6=
EXTT7=
EXTT8=
EXTT9=
EXTT10=
EXTT11=
EXTT12=
EXTT13=
EXTT14=
PLAYORDER=
